<svg width="13" height="13" viewBox="0 0 13 13" fill="none" xmlns="http://www.w3.org/2000/svg">
<path fill-rule="evenodd" clip-rule="evenodd" d="M12.3179 12.2686H9.8543V7.97517C9.8543 6.79738 9.33264 6.14027 8.39709 6.14027C7.37902 6.14027 6.77483 6.82499 6.77483 7.97517V12.2686H4.31125V4.294H6.77483V5.19078C6.77483 5.19078 7.54777 3.83992 9.28952 3.83992C11.0319 3.83992 12.3179 4.8989 12.3179 7.09007V12.2686ZM1.50401 3.01862C0.673172 3.01862 0 2.34266 0 1.50901C0 0.675974 0.673172 0 1.50401 0C2.33424 0 3.00741 0.675974 3.00741 1.50901C3.00802 2.34266 2.33424 3.01862 1.50401 3.01862ZM0 12.2686H3.07947V4.294H0V12.2686Z" fill="white"/>
</svg>
