<svg width="11" height="15" viewBox="0 0 11 15" fill="none" xmlns="http://www.w3.org/2000/svg">
<path d="M4.52175 9.54066C4.15033 11.5266 3.69705 13.4304 2.35387 14.425C1.93892 11.4234 2.96246 9.16908 3.43781 6.77575C2.62725 5.38429 3.53515 2.58381 5.24428 3.2737C7.34727 4.12243 3.42331 8.44746 6.05724 8.98771C8.80784 9.55155 9.93082 4.1189 8.22548 2.35239C5.76106 -0.198712 1.05205 2.2943 1.63098 5.94672C1.77182 6.83949 2.67596 7.11032 1.99241 8.34291C0.415159 7.98581 -0.0553518 6.71692 0.00505303 5.02508C0.10273 2.25559 2.44396 0.316861 4.79273 0.0485173C7.76288 -0.290625 10.5504 1.16068 10.9353 4.01118C11.3689 7.22865 9.59493 10.7131 6.41868 10.4623C5.55771 10.394 5.19627 9.95867 4.52175 9.54066Z" fill="white"/>
</svg>
