<svg width="232" height="45" viewBox="0 0 232 45" fill="none" xmlns="http://www.w3.org/2000/svg">
<g clip-path="url(#clip0_1018_1206)">
<path d="M22.4954 4.60843L24.3926 3.79518L24.8443 0H20.1465L20.6885 3.79518L22.4954 4.60843Z" fill="#3A3526"/>
<path d="M22.4948 5.33133L20.959 5.8735L21.8624 12.8313H23.3982L24.2113 5.96386L22.4948 5.33133Z" fill="#3A3526"/>
<path d="M28.6393 5.69278L30.6269 5.60242L32.3434 2.16868L27.9166 0.542175L27.1035 4.33736L28.6393 5.69278Z" fill="#3A3526"/>
<path d="M28.3671 6.32529H26.6506L25.2051 13.1928L26.5602 13.7349L29.7222 7.49999L28.3671 6.32529Z" fill="#3A3526"/>
<path d="M33.9679 8.76507L35.9554 9.3976L38.6657 6.77712L35.052 3.70483L33.0645 6.95785L33.9679 8.76507Z" fill="#3A3526"/>
<path d="M33.5177 9.30724L31.8915 8.76508L28.1875 14.7289L29.362 15.6325L34.4211 10.8434L33.5177 9.30724Z" fill="#3A3526"/>
<path d="M37.9449 13.5542L39.571 14.7289L43.0944 13.1928L40.7455 9.1265L37.6738 11.4759L37.9449 13.5542Z" fill="#3A3526"/>
<path d="M37.3114 13.9157L36.0466 12.8313L30.4453 17.0783L31.2584 18.4337L37.5824 15.6325L37.3114 13.9157Z" fill="#3A3526"/>
<path d="M40.0215 19.3373L41.1959 21.0542L44.9903 20.8735L44.1772 16.1747L40.4732 17.3494L40.0215 19.3373Z" fill="#3A3526"/>
<path d="M39.3896 19.5181L38.4861 17.9819L31.8008 20.1506L32.0718 21.6868L39.0282 21.2349L39.3896 19.5181Z" fill="#3A3526"/>
<path d="M40.0215 25.5723L40.5635 27.5602L44.1772 28.6446L44.9903 23.9458L41.1959 23.8554L40.0215 25.5723Z" fill="#3A3526"/>
<path d="M39.3896 25.3916L39.0282 23.7651L32.0718 23.494L31.8008 25.0301L38.4861 26.9277L39.3896 25.3916Z" fill="#3A3526"/>
<path d="M37.9444 31.3554L37.7637 33.4337L40.8353 35.6928L43.1842 31.6265L39.5705 30.1807L37.9444 31.3554Z" fill="#3A3526"/>
<path d="M37.3114 30.994L37.6727 29.3675L31.1681 26.747L30.4453 28.012L36.0466 32.1687L37.3114 30.994Z" fill="#3A3526"/>
<path d="M34.0582 36.1446L33.0645 37.9518L35.2327 41.2048L38.8464 38.1325L35.9554 35.5121L34.0582 36.1446Z" fill="#3A3526"/>
<path d="M33.5168 35.6024L34.4202 34.1566L29.1803 29.4578L28.0059 30.3614L31.8906 36.2349L33.5168 35.6024Z" fill="#3A3526"/>
<path d="M28.6388 39.2169L27.1934 40.6626L28.0968 44.3675L32.5236 42.741L30.7167 39.3976L28.6388 39.2169Z" fill="#3A3526"/>
<path d="M28.4584 38.5843L29.7232 37.5L26.4709 31.265L25.0254 31.8072L26.6516 38.5843H28.4584Z" fill="#3A3526"/>
<path d="M22.5847 40.3916L20.6875 41.2048L20.3262 45H25.024L24.4819 41.1145L22.5847 40.3916Z" fill="#3A3526"/>
<path d="M22.5852 39.6687L24.2113 39.0361L23.2176 32.0783L21.6817 32.1687L20.959 39.0361L22.5852 39.6687Z" fill="#3A3526"/>
<path d="M16.5322 39.3072L14.4543 39.4879L12.8281 42.9217L17.2549 44.4578L17.9777 40.753L16.5322 39.3072Z" fill="#3A3526"/>
<path d="M16.8044 38.6747H18.4305L19.876 31.8072L18.4305 31.265L15.4492 37.5903L16.8044 38.6747Z" fill="#3A3526"/>
<path d="M11.1119 36.2349L9.21469 35.6928L6.41406 38.4036L10.0278 41.3856L12.1057 38.1325L11.1119 36.2349Z" fill="#3A3526"/>
<path d="M11.5631 35.6928L13.1893 36.3253L16.8933 30.3614L15.7188 29.3675L10.75 34.247L11.5631 35.6928Z" fill="#3A3526"/>
<path d="M7.13781 31.5362L5.51165 30.3615L1.98828 31.8976L4.42753 35.9639L7.40884 33.6145L7.13781 31.5362Z" fill="#3A3526"/>
<path d="M7.76957 31.1747L9.03437 32.259L14.5453 27.9217L13.8225 26.6566L7.4082 29.4578L7.76957 31.1747Z" fill="#3A3526"/>
<path d="M4.96885 25.753L3.88474 24.0361L0 24.3072L0.903427 29.006L4.51713 27.741L4.96885 25.753Z" fill="#3A3526"/>
<path d="M5.69141 25.6627L6.50449 27.1084L13.1898 24.8494L12.9188 23.4036L5.96243 23.9458L5.69141 25.6627Z" fill="#3A3526"/>
<path d="M4.96885 19.6084L4.42679 17.6205L0.722742 16.5361L0 21.1446L3.79439 21.3253L4.96885 19.6084Z" fill="#3A3526"/>
<path d="M5.60156 19.6988L5.96293 21.3253L12.9193 21.5964L13.1903 20.0602L6.50499 18.1627L5.60156 19.6988Z" fill="#3A3526"/>
<path d="M6.95617 13.7349L7.2272 11.6566L4.06521 9.48795L1.80664 13.5542L5.33001 15L6.95617 13.7349Z" fill="#3A3526"/>
<path d="M7.58939 14.0964L7.31836 15.7229L13.823 18.3434L14.5458 16.988L8.94453 12.9217L7.58939 14.0964Z" fill="#3A3526"/>
<path d="M10.8409 8.94577L11.7443 7.13854L9.66644 3.88553L6.05273 7.04818L8.9437 9.5783L10.8409 8.94577Z" fill="#3A3526"/>
<path d="M11.3839 9.48794L10.4805 10.9337L15.7203 15.6325L16.8948 14.6385L13.0101 8.85541L11.3839 9.48794Z" fill="#3A3526"/>
<path d="M16.1718 5.78314L17.7077 4.33736L16.7139 0.632538L12.2871 2.34941L14.1843 5.69278L16.1718 5.78314Z" fill="#3A3526"/>
<path d="M16.4425 6.41565L15.1777 7.59035L18.5204 13.7349L19.8756 13.1928L18.159 6.41565H16.4425Z" fill="#3A3526"/>
<path d="M24.4826 14.006C24.3923 14.5482 23.9406 15.994 23.5792 16.4458C23.5792 16.4458 23.3985 16.4458 23.3985 16.2651C23.3985 16.2651 23.4889 14.7289 23.6696 13.9157C23.0372 13.8253 22.4048 13.7349 21.7724 13.8253C21.7724 14.8193 22.4048 17.259 22.4048 17.259C22.4951 17.6205 22.4048 17.7108 22.4048 17.7108C22.3144 17.8012 22.1337 17.6205 22.1337 17.6205C21.5917 16.988 21.0496 14.8193 20.8689 14.006C19.4235 14.2771 18.4297 14.8193 18.4297 14.8193C22.2241 17.6205 22.3144 21.1446 22.5855 21.6867C26.3798 18.1627 26.3798 15 26.3798 15C25.8378 14.4578 25.115 14.1867 24.4826 14.006Z" fill="#3A3526"/>
<path d="M30.7167 19.9699C30.1746 20.0602 28.7292 20.5121 28.1871 20.4217C28.1871 20.4217 28.0968 20.3313 28.2774 20.1506C28.2774 20.1506 29.6326 19.4277 30.4457 19.1566C30.1746 18.5241 29.9036 17.9819 29.6326 17.5301C28.8195 17.9819 27.0126 19.7892 27.0126 19.7892C26.7416 20.0602 26.6513 20.0602 26.6513 20.0602C26.5609 19.9699 26.6513 19.7892 26.6513 19.7892C26.9223 19.0663 28.5485 17.5301 29.1809 16.8976C28.1871 15.7229 27.1933 15.1807 27.1933 15.1807C26.6513 19.8795 23.67 21.6868 23.3086 22.2289C28.1871 23.7651 30.9877 22.2289 30.9877 22.2289C30.9877 21.3253 30.8974 20.6024 30.7167 19.9699Z" fill="#3A3526"/>
<path d="M28.7287 28.3735C28.3673 28.0121 27.2832 26.9277 27.1025 26.3855C27.1025 26.3855 27.1929 26.2048 27.3736 26.2952C27.3736 26.2952 28.6384 27.1084 29.2708 27.741C29.7225 27.1988 30.0838 26.6566 30.2645 26.2048C29.4514 25.6627 27.0122 25.0301 27.0122 25.0301C26.6508 24.9398 26.6508 24.8494 26.6508 24.8494C26.6508 24.759 26.9218 24.6687 26.9218 24.6687C27.7349 24.5783 29.8128 25.2108 30.6259 25.3916C31.168 23.9458 31.0776 22.8615 31.0776 22.8615C26.7412 24.6687 23.6695 23.0422 23.0371 22.9518C24.1212 28.0121 26.8315 29.6386 26.8315 29.6386C27.6446 29.2771 28.277 28.8253 28.7287 28.3735Z" fill="#3A3526"/>
<path d="M20.4167 30.8133C20.5071 30.2711 20.9588 28.8253 21.3202 28.3735C21.3202 28.3735 21.5008 28.3735 21.5008 28.5542C21.5008 28.5542 21.4105 30.0904 21.2298 30.9036C21.8622 30.994 22.4946 31.0843 23.127 30.994C23.127 30 22.585 27.5602 22.585 27.5602C22.4946 27.1988 22.585 27.1084 22.585 27.1084C22.6753 27.0181 22.856 27.1988 22.856 27.1988C23.3077 27.8313 23.8498 30 24.0304 30.8133C25.4759 30.5422 26.4697 30 26.4697 30C22.7656 27.1084 22.6753 23.6747 22.4043 23.0422C18.6099 26.4759 18.5195 29.7289 18.5195 29.7289C19.1519 30.3615 19.7843 30.6325 20.4167 30.8133Z" fill="#3A3526"/>
<path d="M14.1836 24.8494C14.7257 24.759 16.1712 24.3072 16.7132 24.4879C16.7132 24.4879 16.8036 24.5783 16.6229 24.759C16.6229 24.759 15.2677 25.4819 14.3643 25.6626C14.545 26.2952 14.9064 26.8373 15.1774 27.3795C16.0808 26.9277 17.7973 25.2108 17.7973 25.2108C18.0684 24.9397 18.1587 24.9397 18.1587 24.9397C18.2491 25.0301 18.1587 25.2108 18.1587 25.2108C17.8877 25.9337 16.2615 27.4699 15.6291 28.012C16.6229 29.1867 17.5263 29.7289 17.5263 29.7289C18.1587 25.0301 21.0497 23.2229 21.5014 22.6807C16.6229 21.0542 13.8223 22.5903 13.8223 22.5903C14.003 23.4036 14.0933 24.1265 14.1836 24.8494Z" fill="#3A3526"/>
<path d="M16.3514 16.4458C16.7127 16.8072 17.7968 17.9819 17.9775 18.4337C17.9775 18.4337 17.8872 18.6145 17.7065 18.5241C17.7065 18.5241 16.4417 17.7108 15.8093 17.0783C15.3576 17.6205 14.9962 18.0723 14.8155 18.6145C15.6286 19.1566 18.0679 19.7892 18.0679 19.7892C18.4292 19.8795 18.4292 19.9699 18.4292 19.9699C18.4292 20.0602 18.1582 20.1506 18.1582 20.1506C17.3451 20.241 15.2673 19.6084 14.4542 19.3373C13.9121 20.7831 13.9121 21.8675 13.9121 21.8675C18.2486 20.0602 21.3202 21.7771 21.9526 21.8675C20.8685 16.8072 18.2486 15.0904 18.2486 15.0904C17.4355 15.5422 16.8031 15.9036 16.3514 16.4458Z" fill="#3A3526"/>
<path d="M92.5102 23.4036C92.6006 24.3976 92.7812 26.0241 94.046 26.3855C94.8591 26.6566 95.5819 26.6566 95.8529 26.6566C96.0336 26.6566 96.1239 26.6566 96.1239 26.8374C96.1239 27.0181 95.8529 27.1084 95.4915 27.1084C94.8591 27.1084 91.8778 27.1084 90.7937 27.0181C90.1613 26.9277 89.9806 26.8374 89.9806 26.747C89.9806 26.6566 90.071 26.5663 90.1613 26.5663C90.342 26.5663 90.342 26.0241 90.2516 25.5723L88.8965 10.8434H88.8062L81.9401 25.6627C81.3077 26.9277 81.3077 27.1988 81.0367 27.1988C80.856 27.1988 80.6753 26.9277 80.1333 25.9337C79.4105 24.5783 76.9713 19.6084 76.8809 19.3373C76.6099 18.7952 73.4479 12.0181 73.1769 11.2048H73.0865L72.0024 24.3976C72.0024 24.8494 72.0024 25.3916 72.0024 25.8434C72.0024 26.2952 72.2734 26.6566 72.7252 26.747C73.1769 26.8374 73.6286 26.9277 73.8093 26.9277C73.8996 26.9277 73.99 27.0181 73.99 27.1084C73.99 27.2892 73.8093 27.3795 73.4479 27.3795C72.4541 27.3795 71.099 27.2892 70.828 27.2892C70.5569 27.2892 69.2018 27.3795 68.4791 27.3795C68.208 27.3795 68.0273 27.2892 68.0273 27.1084C68.0273 27.0181 68.208 26.9277 68.2984 26.9277C68.4791 26.9277 68.7501 26.9277 69.1115 26.8374C70.0149 26.6566 70.1052 25.5723 70.1956 24.488L72.2734 5.60241C72.2734 5.33133 72.4541 5.06024 72.5445 5.06024C72.7252 5.06024 72.8155 5.1506 72.9962 5.51205L81.5787 23.4036L89.7999 5.60241C89.8903 5.33133 90.071 5.1506 90.2516 5.1506C90.4323 5.1506 90.5227 5.42169 90.613 5.96386L92.5102 23.4036Z" fill="#3A3526"/>
<path d="M109.495 26.2952C112.025 26.2952 117.265 24.8494 117.265 16.5361C117.265 9.75904 113.199 6.05422 108.773 6.05422C104.075 6.05422 100.551 9.21687 100.551 15.3614C100.551 22.0482 104.436 26.2952 109.495 26.2952ZM108.953 5.1506C115.277 5.1506 119.975 9.21687 119.975 15.8133C119.975 22.1386 115.548 27.4699 108.773 27.4699C101.093 27.4699 97.9315 21.4157 97.9315 16.2651C97.8411 11.6566 101.184 5.1506 108.953 5.1506Z" fill="#3A3526"/>
<path d="M128.106 16.2651C128.106 16.4458 128.196 16.5361 128.287 16.6265C128.738 16.8976 130.003 17.0783 131.268 17.0783C131.9 17.0783 132.713 16.988 133.346 16.5361C134.34 15.8133 135.062 14.2771 135.062 12.1988C135.062 8.6747 133.165 6.50603 130.184 6.50603C129.371 6.50603 128.558 6.59639 128.287 6.68675C128.106 6.77711 128.106 6.86748 128.106 7.0482V16.2651ZM125.938 13.7349C125.938 9.30723 125.938 8.49398 125.847 7.59037C125.757 6.59639 125.576 6.14458 124.673 5.96386C124.492 5.8735 123.95 5.8735 123.679 5.8735C123.589 5.8735 123.408 5.78314 123.408 5.69278C123.408 5.51205 123.589 5.42169 123.86 5.42169C125.125 5.42169 126.932 5.51205 127.022 5.51205C127.293 5.51205 129.461 5.42169 130.365 5.42169C132.171 5.42169 133.978 5.60241 135.514 6.68675C136.237 7.22892 137.411 8.58434 137.411 10.5723C137.411 12.6506 136.508 14.8193 133.978 17.1687C136.237 20.1506 138.224 22.6807 139.851 24.3976C141.386 26.0241 142.561 26.2952 143.284 26.4759C143.826 26.5663 144.187 26.5663 144.368 26.5663C144.548 26.5663 144.639 26.6566 144.639 26.747C144.639 26.9277 144.458 27.0181 144.006 27.0181H142.019C140.483 27.0181 139.76 26.8374 139.037 26.4759C137.863 25.8434 136.869 24.3976 135.243 22.3193C134.069 20.7831 132.713 18.8855 132.171 18.0723C132.081 17.9819 131.991 17.8916 131.81 17.8916L128.377 17.8012C128.196 17.8012 128.196 17.8916 128.196 18.0723V18.7952C128.196 21.506 128.196 23.7651 128.377 24.9398C128.467 25.753 128.648 26.3855 129.461 26.4759C129.823 26.5663 130.455 26.5663 130.726 26.5663C130.907 26.5663 130.997 26.6566 130.997 26.747C130.997 26.9277 130.816 27.0181 130.545 27.0181C129.009 27.0181 127.203 26.9277 127.112 26.9277C127.112 26.9277 125.305 27.0181 124.492 27.0181C124.221 27.0181 124.041 26.9277 124.041 26.747C124.041 26.6566 124.131 26.5663 124.221 26.5663C124.492 26.5663 124.854 26.4759 125.034 26.4759C125.576 26.3855 125.757 25.753 125.847 24.9398C126.028 23.7651 126.028 21.506 126.028 18.7952V13.7349H125.938Z" fill="#3A3526"/>
<path d="M160.809 19.7892C160.809 17.5301 160.628 17.1687 159.544 16.8976C159.273 16.8072 158.822 16.8072 158.551 16.8072C158.46 16.8072 158.28 16.7169 158.28 16.6265C158.28 16.4458 158.46 16.3554 158.731 16.3554C159.996 16.3554 161.803 16.4458 161.893 16.4458C162.074 16.4458 163.79 16.3554 164.603 16.3554C164.875 16.3554 165.055 16.4458 165.055 16.6265C165.055 16.7169 164.965 16.8072 164.875 16.8072C164.694 16.8072 164.513 16.8072 164.152 16.8976C163.429 17.0783 163.158 17.5301 163.068 18.5241C162.977 19.4277 162.977 20.3313 162.977 21.506V24.6687C162.977 25.9337 162.977 26.0241 162.616 26.2048C160.809 27.1988 158.279 27.4699 156.653 27.4699C154.485 27.4699 150.51 27.1988 147.438 24.3976C145.722 22.8614 144.096 19.8795 144.096 16.2651C144.096 11.747 146.264 8.49398 148.794 6.95783C151.323 5.33133 154.124 5.1506 156.292 5.1506C158.099 5.1506 160.086 5.51205 160.628 5.60241C161.261 5.78313 162.164 5.8735 162.887 5.8735C163.158 5.8735 163.248 6.05422 163.248 6.14458C163.248 6.50603 163.068 7.31928 163.068 10.2108C163.068 10.6627 162.977 10.8434 162.797 10.8434C162.616 10.8434 162.616 10.6627 162.616 10.3916C162.616 10.0301 162.435 9.21687 161.984 8.49398C161.261 7.40964 159.002 6.23494 155.389 6.23494C153.582 6.23494 151.504 6.41566 149.426 8.13253C147.8 9.39759 146.625 12.0181 146.625 15.3614C146.625 19.3374 148.613 22.2289 149.607 23.2229C151.865 25.3916 154.395 26.2952 156.924 26.2952C157.918 26.2952 159.364 26.1145 160.086 25.6627C160.448 25.4819 160.628 25.1205 160.628 24.6687V19.7892H160.809Z" fill="#3A3526"/>
<path d="M178.607 17.6205C178.788 17.6205 178.788 17.5301 178.698 17.4398L176.078 9.75904C175.897 9.30723 175.807 9.30723 175.626 9.75904L173.187 17.4398C173.097 17.6205 173.187 17.6205 173.277 17.6205H178.607ZM175.716 6.23494C176.078 5.33133 176.168 5.1506 176.349 5.1506C176.53 5.1506 176.62 5.33133 176.981 6.14458C177.433 7.22892 181.769 18.9759 183.486 23.3133C184.48 25.8434 185.293 26.2952 185.925 26.4759C186.377 26.6566 186.738 26.6566 187.009 26.6566C187.19 26.6566 187.28 26.6566 187.28 26.8374C187.28 27.0181 187.009 27.0181 186.738 27.0181C186.287 27.0181 184.299 27.0181 182.312 26.9277C181.769 26.9277 181.498 26.9277 181.498 26.747C181.498 26.6566 181.589 26.5663 181.679 26.5663C181.86 26.4759 182.04 26.2952 181.86 25.8434L179.24 18.8855C179.15 18.7952 179.15 18.7048 178.969 18.7048H172.916C172.735 18.7048 172.735 18.7952 172.645 18.9759L170.928 24.0361C170.657 24.759 170.567 25.3916 170.567 25.9337C170.567 26.4759 171.199 26.747 171.651 26.747H171.922C172.103 26.747 172.193 26.8374 172.193 26.9277C172.193 27.1084 172.012 27.1084 171.741 27.1084C171.109 27.1084 169.844 27.0181 169.573 27.0181C169.302 27.0181 167.766 27.1084 166.411 27.1084C166.05 27.1084 165.869 27.0181 165.869 26.9277C165.869 26.8374 165.959 26.747 166.14 26.747C166.321 26.747 166.773 26.747 166.953 26.6566C168.218 26.4759 168.76 25.3916 169.302 23.9458L175.716 6.23494Z" fill="#3A3526"/>
<path d="M192.068 23.1325C192.159 25.4819 192.43 26.2048 193.152 26.3855C193.694 26.5663 194.327 26.5663 194.598 26.5663C194.779 26.5663 194.869 26.6566 194.869 26.747C194.869 26.9277 194.688 27.0181 194.327 27.0181C192.701 27.0181 191.617 26.9277 191.346 26.9277C191.075 26.9277 189.9 27.0181 188.635 27.0181C188.364 27.0181 188.184 27.0181 188.184 26.747C188.184 26.6566 188.274 26.5663 188.364 26.5663C188.635 26.5663 189.087 26.5663 189.539 26.3855C190.261 26.2048 190.352 25.3916 190.352 22.7711V6.50602C190.352 5.42169 190.442 5.06024 190.623 5.06024C190.894 5.06024 191.346 5.69277 191.617 5.96386C192.068 6.41566 196.224 11.0241 200.561 15.7229C203.361 18.7048 206.433 22.2289 207.336 23.1325L207.065 8.6747C207.065 6.86747 206.794 6.23494 205.981 5.96386C205.439 5.87349 204.807 5.78313 204.626 5.78313C204.445 5.78313 204.445 5.69277 204.445 5.60241C204.445 5.42169 204.626 5.42169 204.987 5.42169C206.252 5.42169 207.607 5.51205 207.878 5.51205C208.149 5.51205 209.143 5.42169 210.227 5.42169C210.498 5.42169 210.769 5.42169 210.769 5.60241C210.769 5.69277 210.679 5.78313 210.498 5.78313C210.318 5.78313 210.137 5.78313 209.866 5.87349C208.962 6.05422 208.782 6.68675 208.782 8.40362L208.691 25.0301C208.691 26.9277 208.601 27.0181 208.42 27.0181C208.149 27.0181 207.878 26.747 206.342 25.2108C206.071 24.9398 202.006 20.7831 199.025 17.5301C195.772 14.006 192.61 10.3916 191.707 9.39759L192.068 23.1325Z" fill="#3A3526"/>
<path d="M214.653 4.247C214.382 3.97592 214.382 3.88556 214.382 3.79519C214.382 3.70483 214.563 3.61447 214.653 3.61447C215.105 3.61447 216.189 3.97592 216.641 4.15664C217.002 4.33736 217.093 4.42772 217.093 4.87953C217.093 6.86748 215.647 9.30724 214.653 10.4819C214.563 10.6627 214.473 10.753 214.292 10.753C214.202 10.753 214.111 10.6627 214.111 10.5723C214.111 10.4819 214.111 10.3916 214.202 10.2109C214.653 9.30724 215.105 7.7711 215.105 6.14459C215.195 5.24098 214.834 4.51809 214.653 4.247Z" fill="#3A3526"/>
<path d="M221.702 26.6566C221.34 26.4759 221.25 26.3855 221.25 25.5723C221.25 24.1265 221.34 23.0422 221.431 22.5904C221.431 22.3193 221.521 22.1386 221.611 22.1386C221.792 22.1386 221.792 22.2289 221.792 22.4096C221.792 22.6807 221.792 23.0422 221.882 23.494C222.334 25.5723 224.141 26.3855 226.038 26.3855C228.748 26.3855 230.013 24.3976 230.013 22.5904C230.013 20.6024 229.2 19.5181 226.761 17.4398L225.496 16.3554C222.515 13.9157 221.882 12.1084 221.882 10.2108C221.882 7.13856 224.141 5.06024 227.664 5.06024C228.748 5.06024 229.562 5.1506 230.284 5.33133C230.826 5.42169 231.007 5.51205 231.278 5.51205C231.459 5.51205 231.549 5.60241 231.549 5.69277C231.549 5.87349 231.459 6.77711 231.459 8.6747C231.459 9.12651 231.368 9.30723 231.278 9.30723C231.097 9.30723 231.097 9.12651 231.097 8.94578C231.097 8.58434 230.917 7.86145 230.736 7.5C230.555 7.22892 229.833 5.96386 227.213 5.96386C225.315 5.96386 223.78 7.22892 223.78 9.21687C223.78 10.8434 224.502 11.8373 227.213 14.006L228.026 14.6386C231.368 17.259 232.091 19.0663 232.091 21.3253C232.091 22.5 231.639 24.6687 229.742 26.0241C228.568 26.8373 227.032 27.1988 225.496 27.1988C224.141 27.3795 222.786 27.1988 221.702 26.6566Z" fill="#3A3526"/>
<path d="M69.5631 36.2349H68.3887V42.0181H69.5631V36.2349Z" fill="#3A3526"/>
<path d="M77.9658 36.2349V40.5723L77.6948 40.0301L75.3459 36.2349H73.9004V42.0181H74.9845V37.6807L75.3459 38.2229L77.6044 42.0181H79.1403V36.2349H77.9658Z" fill="#3A3526"/>
<path d="M82.9355 36.2349V37.2289H85.0134V42.0181H86.1879V37.2289H88.2658V36.2349H82.9355Z" fill="#3A3526"/>
<path d="M92.1504 36.2349V42.0181H96.4868V40.9337H93.3248V39.5783H95.7641V38.5843H93.3248V37.2289H96.3965V36.2349H92.1504Z" fill="#3A3526"/>
<path d="M103.081 38.8554C103.533 38.8554 104.255 38.765 104.255 38.0422C104.255 37.5903 103.984 37.2289 103.262 37.2289H101.635V38.8554H103.081ZM103.984 40.753C103.894 40.1205 103.713 39.9397 103.081 39.9397H101.635V42.0181H100.461V36.2349H103.533C104.797 36.2349 105.43 36.8675 105.43 37.8614C105.43 39.0361 104.707 39.3072 104.075 39.3072C104.617 39.3976 105.068 39.5783 105.159 40.3916C105.249 41.1144 105.339 41.5663 105.61 41.8373H104.255C104.165 41.747 104.075 41.2048 103.984 40.753Z" fill="#3A3526"/>
<path d="M113.742 36.2349V40.5723L113.38 40.0301L111.122 36.2349H109.586V42.0181H110.76V37.6807L111.031 38.2229L113.38 42.0181H114.826V36.2349H113.742Z" fill="#3A3526"/>
<path d="M121.51 37.4096L122.504 39.6687H120.697L121.51 37.4096ZM120.878 36.2349L118.619 42.0181H119.794L120.336 40.6626H122.956L123.498 42.0181H124.762L122.323 36.2349H120.878Z" fill="#3A3526"/>
<path d="M127.293 36.2349V37.2289H129.371V42.0181H130.545V37.2289H132.623V36.2349H127.293Z" fill="#3A3526"/>
<path d="M137.592 36.2349H136.418V42.0181H137.592V36.2349Z" fill="#3A3526"/>
<path d="M144.73 41.0241C145.904 41.0241 146.537 40.2109 146.537 39.1265C146.537 37.9518 145.814 37.1386 144.73 37.1386C143.555 37.1386 142.923 37.9518 142.923 39.1265C142.923 40.3012 143.555 41.0241 144.73 41.0241ZM141.658 39.1265C141.658 37.4097 142.833 36.1446 144.73 36.1446C146.537 36.1446 147.802 37.3193 147.802 39.1265C147.802 40.8434 146.627 42.1084 144.73 42.1084C142.923 42.1084 141.658 40.8434 141.658 39.1265Z" fill="#3A3526"/>
<path d="M155.931 36.2349V40.5723L155.569 40.0301L153.311 36.2349H151.865V42.0181H152.949V37.6807L153.22 38.2229L155.569 42.0181H157.015V36.2349H155.931Z" fill="#3A3526"/>
<path d="M163.702 37.4096L164.695 39.6687H162.888L163.702 37.4096ZM163.069 36.2349L160.811 42.0181H161.985L162.527 40.6626H165.147L165.689 42.0181H166.954L164.515 36.2349H163.069Z" fill="#3A3526"/>
<path d="M170.658 36.2349V42.0181H174.814V40.9337H171.742V36.2349H170.658Z" fill="#3A3526"/>
<path d="M186.557 38.8554C187.009 38.8554 187.732 38.765 187.732 38.0422C187.732 37.5903 187.461 37.2289 186.738 37.2289H185.112V38.8554H186.557ZM187.461 40.753C187.371 40.1205 187.19 39.9397 186.557 39.9397H185.112V42.0181H183.938V36.2349H187.009C188.274 36.2349 188.906 36.8675 188.906 37.8614C188.906 39.0361 188.184 39.3072 187.551 39.3072C188.093 39.3976 188.545 39.5783 188.635 40.3916C188.726 41.1144 188.816 41.5663 189.087 41.8373H187.732C187.551 41.747 187.461 41.2048 187.461 40.753Z" fill="#3A3526"/>
<path d="M193.062 36.2349V42.0181H197.489V40.9337H194.237V39.5783H196.767V38.5843H194.237V37.2289H197.399V36.2349H193.062Z" fill="#3A3526"/>
<path d="M203.813 37.4096L204.807 39.6687H203L203.813 37.4096ZM203.18 36.2349L200.922 42.0181H202.096L202.638 40.6626H205.258L205.8 42.0181H207.065L204.626 36.2349H203.18Z" fill="#3A3526"/>
<path d="M210.68 36.2349V42.0181H214.835V40.9337H211.854V36.2349H210.68Z" fill="#3A3526"/>
<path d="M217.455 36.2349V37.2289H219.533V42.0181H220.707V37.2289H222.785V36.2349H217.455Z" fill="#3A3526"/>
<path d="M230.464 36.2349L228.928 38.8554L227.392 36.2349H226.037L228.296 39.8494V42.0181H229.47V39.8494L231.638 36.2349H230.464Z" fill="#3A3526"/>
</g>
<defs>
<clipPath id="clip0_1018_1206">
<rect width="232" height="45" fill="white"/>
</clipPath>
</defs>
</svg>
