<svg width="13" height="9" viewBox="0 0 13 9" fill="none" xmlns="http://www.w3.org/2000/svg">
<path fill-rule="evenodd" clip-rule="evenodd" d="M5.13542 6.13783V2.54468C6.41613 3.1449 7.40802 3.72472 8.58115 4.34985C7.61357 4.8843 6.41613 5.48397 5.13542 6.13783ZM12.2728 0.757637C12.0519 0.467742 11.6753 0.242084 11.2745 0.167376C10.0962 -0.0554749 2.74563 -0.0561088 1.56803 0.167376C1.24657 0.227396 0.960323 0.372474 0.714428 0.597879C-0.321662 1.55568 0.00299969 6.69205 0.252737 7.52407C0.357754 7.8842 0.493515 8.14393 0.664489 8.31442C0.88477 8.53982 1.18637 8.69502 1.5328 8.76462C2.50293 8.96449 7.50088 9.07623 11.254 8.79463C11.5998 8.73461 11.9059 8.57442 12.1473 8.33943C13.1052 7.38546 13.0399 1.96063 12.2728 0.757637Z" fill="white"/>
</svg>
