<svg width="21" height="19" viewBox="0 0 21 19" fill="none" xmlns="http://www.w3.org/2000/svg">
<path fill-rule="evenodd" clip-rule="evenodd" d="M2.47059 2.57953C2.47059 1.23971 3.48453 0.153564 4.73529 0.153564H16.2647C17.5155 0.153564 18.5294 1.23971 18.5294 2.57953V8.97531H18.7353C19.986 8.97531 21 10.0614 21 11.4013V18.4586H19.7647V15.7697H1.23529V18.4586H0V11.4013C0 10.0614 1.01394 8.97531 2.26471 8.97531H2.47059V2.57953ZM17.2941 2.57953V8.97531H15.2353V6.10819C15.2353 5.25563 14.5901 4.56444 13.7941 4.56444H7.20589C6.4099 4.56444 5.76467 5.25563 5.76467 6.10819V8.97531H3.70588V2.57953C3.70588 1.97052 4.16677 1.47682 4.73529 1.47682H16.2647C16.8333 1.47682 17.2941 1.97052 17.2941 2.57953ZM7 8.97531H14V6.10819C14 5.98637 13.9079 5.88771 13.7941 5.88771H7.20589C7.09214 5.88771 7 5.98637 7 6.10819V8.97531ZM1.23529 14.4464H19.7647V11.4013C19.7647 10.7923 19.3038 10.2985 18.7353 10.2985H2.26471C1.69618 10.2985 1.23529 10.7923 1.23529 11.4013V14.4464Z" fill="black" fill-opacity="0.7"/>
</svg>
