<svg width="24" height="19" viewBox="0 0 24 19" fill="none" xmlns="http://www.w3.org/2000/svg">
<path d="M0.97804 10.4314C1.64336 13.0205 3.53408 15.0708 5.99004 16.0958L5.30277 17.4209H0.629243C0.402325 17.4209 0.218706 17.6186 0.218706 17.863C0.218706 18.1073 0.402325 18.305 0.629243 18.305H23.1815C23.4085 18.305 23.5921 18.1073 23.5921 17.863C23.5921 17.6186 23.4085 17.4209 23.1815 17.4209H18.508L17.8208 16.0958C20.2767 15.0708 22.1674 13.0205 22.8327 10.4314L23.7957 6.68905C23.8302 6.55609 23.8046 6.41363 23.7276 6.30355C23.6498 6.19347 23.5287 6.12915 23.4004 6.12915H2.38365V4.29229C2.38365 3.36502 2.65627 2.53013 3.1518 1.9413C4.0681 0.853109 5.29745 0.805353 6.12184 0.935184C5.87362 1.24444 5.72874 1.6424 5.72668 2.07134L5.18364 2.14592C4.95913 2.177 4.79957 2.39846 4.82843 2.64064C4.85489 2.86382 5.0313 3.02657 5.23496 3.02657C5.2526 3.02657 5.27024 3.02528 5.28788 3.02312L9.56405 2.43602C9.78856 2.40494 9.94812 2.18348 9.91926 1.9413C9.89039 1.69869 9.67791 1.52774 9.45981 1.55882L8.91707 1.63334C8.72293 0.840212 8.04373 0.296549 7.27166 0.334592C6.88713 0.181341 4.30123 -0.741186 2.54402 1.34772C1.91137 2.09973 1.56257 3.14529 1.56257 4.29229V6.12915H0.410343C0.28205 6.12915 0.160974 6.19347 0.0831961 6.30355C0.00622034 6.41363 -0.0194383 6.55609 0.0150405 6.68905L0.97804 10.4314ZM8.09584 1.74606L7.32173 1.85237L6.54756 1.95857C6.59727 1.57911 6.87711 1.2657 7.24676 1.21519C7.28123 1.21044 7.31571 1.20785 7.34939 1.20785C7.67809 1.20785 7.97226 1.42548 8.09584 1.74606ZM17.5677 17.4209H6.24306L6.78255 16.3806C7.67117 16.6589 8.61754 16.8122 9.59772 16.8122H14.2131C15.1933 16.8122 16.1396 16.6589 17.0282 16.3806L17.5677 17.4209ZM22.8608 7.01325L22.0421 10.1957C21.1738 13.5707 17.9544 15.9281 14.2131 15.9281H9.59772C5.85638 15.9281 2.63703 13.5707 1.76864 10.1957L0.949976 7.01325H22.8608Z" fill="#3A3526"/>
<path d="M13.9603 14.4781C16.9792 14.4781 19.5844 12.5462 20.2956 9.77995C20.3565 9.54468 20.2283 9.30121 20.0102 9.23602C19.7881 9.17083 19.5651 9.30898 19.505 9.54425C18.8916 11.9285 16.6112 13.594 13.9603 13.594C13.7334 13.594 13.5498 13.7917 13.5498 14.036C13.5498 14.2803 13.7334 14.4781 13.9603 14.4781Z" fill="#3A3526"/>
</svg>
