<svg width="22" height="19" viewBox="0 0 22 19" fill="none" xmlns="http://www.w3.org/2000/svg">
<path fill-rule="evenodd" clip-rule="evenodd" d="M2.58824 2.51807C2.58824 1.12738 3.65046 0 4.96078 0H17.0392C18.3496 0 19.4118 1.12738 19.4118 2.51807V9.15667H19.6275C20.9378 9.15667 22 10.284 22 11.6747V19H20.7059V16.209H1.29411V19H0V11.6747C0 10.284 1.06222 9.15667 2.37255 9.15667H2.58824V2.51807ZM18.1176 2.51807V9.15667H15.9608V6.1807C15.9608 5.29577 15.2849 4.57833 14.451 4.57833H7.54903C6.71513 4.57833 6.03918 5.29577 6.03918 6.1807V9.15667H3.88235V2.51807C3.88235 1.88594 4.36519 1.37349 4.96078 1.37349H17.0392C17.6348 1.37349 18.1176 1.88594 18.1176 2.51807ZM7.33333 9.15667H14.6667V6.1807C14.6667 6.05425 14.5701 5.95184 14.451 5.95184H7.54903C7.42986 5.95184 7.33333 6.05425 7.33333 6.1807V9.15667ZM1.29411 14.8355H20.7059V11.6747C20.7059 11.0426 20.223 10.5301 19.6275 10.5301H2.37255C1.77695 10.5301 1.29411 11.0426 1.29411 11.6747V14.8355Z" fill="#3A3526"/>
</svg>
