<svg width="20" height="21" viewBox="0 0 20 21" fill="none" xmlns="http://www.w3.org/2000/svg">
<path d="M0.382031 18.2915C-0.127344 18.8009 -0.127344 19.6266 0.382031 20.136C0.891406 20.6454 1.71729 20.6454 2.22666 20.136L0.382031 18.2915ZM10.9223 11.4403C11.4317 10.931 11.4317 10.1052 10.9223 9.59582C10.4129 9.08643 9.58715 9.08643 9.07776 9.59582L10.9223 11.4403ZM9.07776 9.59582C8.56836 10.1052 8.56836 10.931 9.07776 11.4403C9.58715 11.9497 10.4129 11.9497 10.9223 11.4403L9.07776 9.59582ZM19.618 2.74473C20.1273 2.23535 20.1273 1.40947 19.618 0.900098C19.1086 0.390723 18.2828 0.390723 17.7734 0.900098L19.618 2.74473ZM10.9223 9.59582C10.4129 9.08643 9.58715 9.08643 9.07776 9.59582C8.56836 10.1052 8.56836 10.931 9.07776 11.4403L10.9223 9.59582ZM17.7734 20.136C18.2828 20.6454 19.1086 20.6454 19.618 20.136C20.1273 19.6266 20.1273 18.8009 19.618 18.2915L17.7734 20.136ZM9.07776 11.4403C9.58715 11.9497 10.4129 11.9497 10.9223 11.4403C11.4317 10.931 11.4317 10.1052 10.9223 9.59582L9.07776 11.4403ZM2.22666 0.900098C1.71729 0.390723 0.891406 0.390723 0.382031 0.900098C-0.127344 1.40947 -0.127344 2.23535 0.382031 2.74473L2.22666 0.900098ZM2.22666 20.136L10.9223 11.4403L9.07776 9.59582L0.382031 18.2915L2.22666 20.136ZM10.9223 11.4403L19.618 2.74473L17.7734 0.900098L9.07776 9.59582L10.9223 11.4403ZM9.07776 11.4403L17.7734 20.136L19.618 18.2915L10.9223 9.59582L9.07776 11.4403ZM10.9223 9.59582L2.22666 0.900098L0.382031 2.74473L9.07776 11.4403L10.9223 9.59582Z" fill="#9B8E66"/>
</svg>
