<svg width="17" height="13" viewBox="0 0 17 13" fill="none" xmlns="http://www.w3.org/2000/svg">
<path fill-rule="evenodd" clip-rule="evenodd" d="M5.2619 4.71859C5.2619 2.98125 6.71165 1.57286 8.5 1.57286C10.2883 1.57286 11.7381 2.98125 11.7381 4.71859V5.50502H12.5476C14.1124 5.50502 15.381 6.73736 15.381 8.25754C15.381 9.77771 14.1124 11.01 12.5476 11.01H12.4667C12.0196 11.01 11.6571 11.3621 11.6571 11.7965C11.6571 12.2308 12.0196 12.5829 12.4667 12.5829H12.5476C15.0066 12.5829 17 10.6464 17 8.25754C17 6.11789 15.4008 4.34108 13.3002 3.99369C12.9412 1.73183 10.9288 0 8.5 0C6.07122 0 4.0588 1.73183 3.69982 3.99369C1.59922 4.34108 0 6.11789 0 8.25754C0 10.6464 1.9934 12.5829 4.45238 12.5829H4.53333C4.98042 12.5829 5.34286 12.2308 5.34286 11.7965C5.34286 11.3621 4.98042 11.01 4.53333 11.01H4.45238C2.88757 11.01 1.61905 9.77771 1.61905 8.25754C1.61905 6.73736 2.88757 5.50502 4.45238 5.50502H5.2619V4.71859ZM9.30952 5.50502C9.30952 5.07068 8.9471 4.71859 8.5 4.71859C8.0529 4.71859 7.69048 5.07068 7.69048 5.50502V9.89788L6.64385 8.8811C6.32771 8.574 5.81515 8.574 5.49901 8.8811C5.18287 9.1882 5.18287 9.68617 5.49901 9.99327L7.92759 12.3526C8.2437 12.6597 8.7563 12.6597 9.07241 12.3526L11.501 9.99327C11.8171 9.68617 11.8171 9.1882 11.501 8.8811C11.1849 8.574 10.6723 8.574 10.3562 8.8811L9.30952 9.89788V5.50502Z" fill="#FCF9F2"/>
</svg>
