<svg width="44" height="43" viewBox="0 0 44 43" fill="none" xmlns="http://www.w3.org/2000/svg">
<path d="M21.676 4.40688L23.4795 3.64226L23.9015 0H19.3843L19.8724 3.64226L21.676 4.40688Z" fill="black"/>
<path d="M21.6758 5.08929L20.1453 5.64015L21.0388 12.2916H22.4866L23.2477 5.6566L21.6758 5.08929Z" fill="black"/>
<path d="M27.5167 5.44283L29.4858 5.33595L31.1239 2.06367L26.8714 0.517975L26.0854 4.1109L27.5167 5.44283Z" fill="black"/>
<path d="M27.2852 6.08414H25.6554L24.2241 12.6369L25.5892 13.1302L28.5758 7.15297L27.2852 6.08414Z" fill="black"/>
<path d="M32.6545 8.41089L34.5408 8.97819L37.2048 6.4541L33.7383 3.56003L31.7693 6.66787L32.6545 8.41089Z" fill="black"/>
<path d="M32.2244 8.92888L30.6856 8.37802L27.095 14.0511L28.2119 14.9801L33.0683 10.3759L32.2244 8.92888Z" fill="black"/>
<path d="M36.4767 12.9411L38.0487 14.1168L41.4159 12.6451L39.149 8.74799L36.2368 11.0008L36.4767 12.9411Z" fill="black"/>
<path d="M35.8893 13.2782L34.64 12.2422L29.3203 16.3449L30.0484 17.6029L36.1871 14.9308L35.8893 13.2782Z" fill="black"/>
<path d="M38.512 18.499L39.5875 20.1352L43.2608 19.905L42.4583 15.4734L38.9504 16.5998L38.512 18.499Z" fill="black"/>
<path d="M37.8419 18.6224L37.0229 17.2164L30.6194 19.2719L30.8759 20.6943L37.5606 20.2667L37.8419 18.6224Z" fill="black"/>
<path d="M38.5286 24.4187L38.9753 26.3262L42.508 27.3539L43.2774 22.9141L39.5875 22.7826L38.5286 24.4187Z" fill="black"/>
<path d="M37.8584 24.3036L37.5688 22.7086L30.8427 22.4537L30.5945 23.8843L37.0228 25.7589L37.8584 24.3036Z" fill="black"/>
<path d="M36.5098 29.9849L36.2864 31.9335L39.2482 34.104L41.4902 30.1904L38.0734 28.8092L36.5098 29.9849Z" fill="black"/>
<path d="M35.9223 29.6478L36.1953 28.0528L29.9573 25.5287L29.2375 26.7866L34.64 30.7331L35.9223 29.6478Z" fill="black"/>
<path d="M32.7124 34.5315L31.8354 36.291L33.8789 39.3331L37.3206 36.4143L34.5822 33.956L32.7124 34.5315Z" fill="black"/>
<path d="M32.2739 34.0218L33.0764 32.6076L28.0793 28.1185L26.9707 29.0558L30.7019 34.6055L32.2739 34.0218Z" fill="black"/>
<path d="M27.5829 37.5161L26.1599 38.8644L27.0369 42.4245L31.2728 40.8541L29.5437 37.6147L27.5829 37.5161Z" fill="black"/>
<path d="M27.3514 36.883L28.5924 35.8306L25.4237 29.9109L24.0669 30.4124L25.6719 36.8994L27.3514 36.883Z" fill="black"/>
<path d="M21.742 38.5767L19.9384 39.3577L19.5496 43L24.0668 42.9671L23.5538 39.3331L21.742 38.5767Z" fill="black"/>
<path d="M21.742 37.9025L23.2643 37.3352L22.3212 30.692L20.8651 30.7002L20.1536 37.3434L21.742 37.9025Z" fill="black"/>
<path d="M15.8929 37.5901L13.9321 37.7052L12.3105 41.0021L16.5713 42.5067L17.3324 38.9055L15.8929 37.5901Z" fill="black"/>
<path d="M16.1163 36.9488L17.7461 36.9323L19.1277 30.3713L17.7627 29.8862L14.8174 35.8881L16.1163 36.9488Z" fill="black"/>
<path d="M10.7305 34.6631L8.84422 34.1122L6.19678 36.661L9.68809 39.5222L11.6323 36.3979L10.7305 34.6631Z" fill="black"/>
<path d="M11.1605 34.1451L12.6993 34.6796L16.2403 28.9818L15.1234 28.061L10.3083 32.6981L11.1605 34.1451Z" fill="black"/>
<path d="M6.87516 30.1658L5.2867 28.9983L1.93604 30.4947L4.236 34.3753L7.13163 32.0979L6.87516 30.1658Z" fill="black"/>
<path d="M7.46258 29.8205L8.72011 30.8482L14.0067 26.6962L13.2621 25.4547L7.14819 28.1761L7.46258 29.8205Z" fill="black"/>
<path d="M4.79835 24.6243L3.70628 22.9882L0.032959 23.2513L0.868557 27.6828L4.36814 26.5235L4.79835 24.6243Z" fill="black"/>
<path d="M5.46045 24.4927L6.29605 25.8904L12.683 23.7857L12.41 22.3633L5.73347 22.8401L5.46045 24.4927Z" fill="black"/>
<path d="M4.7323 18.7046L4.26899 16.7971L0.728046 15.7941L0 20.2421L3.68159 20.3489L4.7323 18.7046Z" fill="black"/>
<path d="M5.40234 18.8115L5.70845 20.4065L12.4346 20.6038L12.6663 19.1732L6.22967 17.348L5.40234 18.8115Z" fill="black"/>
<path d="M6.7095 13.122L6.91633 11.1652L3.93796 9.02753L1.729 12.9575L5.15413 14.3059L6.7095 13.122Z" fill="black"/>
<path d="M7.297 13.4509L7.04053 15.0541L13.2951 17.5206L13.9983 16.2627L8.57108 12.3574L7.297 13.4509Z" fill="black"/>
<path d="M10.4656 8.54245L11.3343 6.78299L9.26594 3.74915L5.84082 6.69255L8.60408 9.13442L10.4656 8.54245Z" fill="black"/>
<path d="M10.9124 9.0522L10.1182 10.4746L15.1483 14.9226L16.2486 13.9771L12.4843 8.46024L10.9124 9.0522Z" fill="black"/>
<path d="M15.5702 5.51681L16.9932 4.16021L16.0831 0.608398L11.8555 2.21165L13.6177 5.44282L15.5702 5.51681Z" fill="black"/>
<path d="M15.8101 6.14991L14.5857 7.21052L17.7874 13.1055L19.1525 12.5958L17.4979 6.12524L15.8101 6.14991Z" fill="black"/>
<path d="M23.529 13.3933C23.4049 13.8702 23.0078 15.3008 22.6768 15.6954C22.6768 15.6954 22.5279 15.7118 22.5031 15.5145C22.5031 15.5145 22.5693 14.051 22.7678 13.2289C22.1308 13.122 21.5351 13.0973 20.9808 13.1302C20.9643 14.0675 21.5682 16.3696 21.5682 16.3696C21.6592 16.756 21.5848 16.8053 21.5848 16.8053C21.4772 16.8547 21.32 16.682 21.32 16.682C20.8402 16.0736 20.319 14.0099 20.137 13.2371C18.714 13.492 17.7874 14.0593 17.7874 14.0593C21.4193 16.7725 21.5351 20.0694 21.7833 20.6531C25.4153 17.3233 25.4732 14.2648 25.4732 14.2648C24.8196 13.8455 24.166 13.5742 23.529 13.3933Z" fill="black"/>
<path d="M29.577 19.0664C29.0971 19.1979 27.6576 19.5679 27.1529 19.4774C27.1529 19.4774 27.0702 19.3623 27.2274 19.239C27.2274 19.239 28.5345 18.573 29.3536 18.3264C29.1385 17.7262 28.8572 17.1918 28.5511 16.7396C27.7238 17.1918 26.0277 18.8608 26.0277 18.8608C25.7382 19.1321 25.6554 19.091 25.6554 19.091C25.5562 19.0252 25.6306 18.795 25.6306 18.795C25.9202 18.0797 27.459 16.5998 28.0381 16.0572C27.1115 14.9472 26.1601 14.4293 26.1601 14.4293C25.6058 18.9184 22.7929 20.6532 22.4041 21.1629C27.1115 22.6511 29.8003 21.1794 29.8003 21.1794C29.8252 20.4147 29.7341 19.7077 29.577 19.0664Z" fill="black"/>
<path d="M27.6492 27.1237C27.3018 26.7702 26.2593 25.7096 26.0856 25.2327C26.0856 25.2327 26.1435 25.1011 26.3255 25.1751C26.3255 25.1751 27.5582 25.9809 28.1704 26.5646C28.5841 26.0713 28.9068 25.5698 29.155 25.0765C28.3525 24.5914 26.0525 23.9419 26.0525 23.9419C25.6719 23.8268 25.6637 23.7363 25.6637 23.7363C25.6719 23.6212 25.9036 23.5719 25.9036 23.5719C26.673 23.465 28.7247 24.057 29.4859 24.2954C29.9906 22.9388 29.9657 21.8618 29.9657 21.8618C25.7795 23.613 22.8756 22.0426 22.2385 21.9604C23.2892 26.7702 25.8953 28.3652 25.8953 28.3652C26.5985 28.0034 27.1694 27.5759 27.6492 27.1237Z" fill="black"/>
<path d="M19.6737 29.4587C19.806 28.9818 20.2114 27.5512 20.5424 27.1648C20.5424 27.1648 20.683 27.1484 20.7078 27.3457C20.7078 27.3457 20.6251 28.8092 20.4183 29.6314C21.047 29.7465 21.651 29.7794 22.2053 29.7465C22.2301 28.8092 21.651 26.4989 21.651 26.4989C21.56 26.1124 21.6344 26.0631 21.6344 26.0631C21.742 26.0138 21.8992 26.1947 21.8992 26.1947C22.379 26.8031 22.8754 28.875 23.0492 29.6478C24.4804 29.4094 25.407 28.8503 25.407 28.8503C21.7999 26.1042 21.7172 22.8073 21.4772 22.2153C17.8122 25.5122 17.7212 28.5625 17.7212 28.5625C18.3913 28.9818 19.0449 29.2696 19.6737 29.4587Z" fill="black"/>
<path d="M13.6838 23.7199C14.1637 23.5966 15.6115 23.243 16.1079 23.3335C16.1079 23.3335 16.1906 23.4486 16.0334 23.5719C16.0334 23.5719 14.718 24.2297 13.8989 24.4599C14.114 25.0683 14.3871 25.5945 14.6932 26.0549C15.5205 25.6109 17.2413 23.9583 17.2413 23.9583C17.5392 23.687 17.6136 23.7281 17.6136 23.7281C17.7129 23.7939 17.6302 24.0241 17.6302 24.0241C17.3323 24.7394 15.7852 26.2029 15.1978 26.7373C16.1162 27.8555 17.0593 28.3817 17.0593 28.3817C17.6633 23.8926 20.4844 22.1906 20.8815 21.6809C16.1906 20.1516 13.4853 21.5905 13.4853 21.5905C13.4522 22.3715 13.5266 23.0786 13.6838 23.7199Z" fill="black"/>
<path d="M15.6944 15.6872C16.0419 16.0407 17.0677 17.1178 17.2332 17.5946C17.2332 17.5946 17.1753 17.7262 16.985 17.644C16.985 17.644 15.7606 16.83 15.1484 16.238C14.7264 16.7231 14.4038 17.2247 14.1473 17.718C14.9498 18.2113 17.2332 18.8772 17.2332 18.8772C17.6138 19.0006 17.6138 19.0828 17.6138 19.0828C17.6055 19.1979 17.3656 19.2472 17.3656 19.2472C16.5962 19.3459 14.5527 18.7293 13.7915 18.4908C13.2786 19.8392 13.2869 20.9245 13.2869 20.9245C17.4897 19.2143 20.3853 20.8094 21.0141 20.8998C20.013 16.0818 17.4152 14.4539 17.4152 14.4539C16.7534 14.8157 16.1742 15.235 15.6944 15.6872Z" fill="black"/>
</svg>
