<svg width="15" height="16" viewBox="0 0 15 16" fill="none" xmlns="http://www.w3.org/2000/svg">
<path d="M1 2.57952H5.66667M5.66667 2.57952C5.66667 3.45187 6.36309 4.15905 7.22222 4.15905C8.08136 4.15905 8.77778 3.45187 8.77778 2.57952M5.66667 2.57952C5.66667 1.70718 6.36309 1 7.22222 1C8.08136 1 8.77778 1.70718 8.77778 2.57952M8.77778 2.57952H13.4444M1 8.10786H10.3333M10.3333 8.10786C10.3333 8.98023 11.0298 9.68738 11.8889 9.68738C12.748 9.68738 13.4444 8.98023 13.4444 8.10786C13.4444 7.23549 12.748 6.52833 11.8889 6.52833C11.0298 6.52833 10.3333 7.23549 10.3333 8.10786ZM4.11111 13.6362H13.4444M4.11111 13.6362C4.11111 12.7638 3.41467 12.0567 2.55556 12.0567C1.69645 12.0567 1 12.7638 1 13.6362C1 14.5086 1.69645 15.2157 2.55556 15.2157C3.41467 15.2157 4.11111 14.5086 4.11111 13.6362Z" stroke="#FCF9F2" stroke-width="1.2" stroke-linecap="round"/>
</svg>
