<svg width="1440" height="424" viewBox="0 0 1440 424" fill="none" xmlns="http://www.w3.org/2000/svg">
<mask id="mask0_1018_5892" style="mask-type:alpha" maskUnits="userSpaceOnUse" x="0" y="0" width="1442" height="424">
<rect width="1442" height="424" fill="#231F14"/>
</mask>
<g mask="url(#mask0_1018_5892)">
<g opacity="0.2">
<path d="M207.018 232.883L233.082 221.755L239.104 169H174.059L181.084 221.787L207.018 232.883Z" fill="#3A3526"/>
<path d="M207.018 242.682L184.969 250.728L197.855 347.056H218.77L229.746 250.955L207.018 242.682Z" fill="#3A3526"/>
<path d="M291.167 247.873L319.464 246.38L343.067 198.816L281.875 176.527L270.607 228.568L291.167 247.873Z" fill="#3A3526"/>
<path d="M287.832 257.087L264.359 257.152L243.734 352.084L263.387 359.255L306.416 272.66L287.832 257.087Z" fill="#3A3526"/>
<path d="M365.18 290.797L392.279 299.038L430.646 262.44L380.721 220.587L352.391 265.587L365.18 290.797Z" fill="#3A3526"/>
<path d="M358.9 298.291L336.851 290.343L285.145 372.492L301.204 385.957L371.041 319.283L358.9 298.291Z" fill="#3A3526"/>
<path d="M420.123 356.464L442.82 373.498L491.321 352.214L458.652 295.761L416.691 328.367L420.123 356.464Z" fill="#3A3526"/>
<path d="M411.706 361.364L393.672 346.309L317.133 405.877L327.623 424.014L415.98 385.243L411.706 361.364Z" fill="#3A3526"/>
<path d="M449.457 436.992L464.998 460.774L517.87 457.399L506.311 393.127L455.803 409.446L449.457 436.992Z" fill="#3A3526"/>
<path d="M439.873 438.711L428.023 418.401L335.846 448.185L339.537 468.82L435.761 462.655L439.873 438.711Z" fill="#3A3526"/>
<path d="M-27.166 441.534L-22.8275 464.634L74.0124 467.457L77.412 446.757L-15.3484 420.348L-27.166 441.534Z" fill="#3A3526"/>
<path d="M0.0643389 363.829L-3.69141 387.092L86.3817 422.879L96.6128 404.547L18.3898 347.964L0.0643389 363.829Z" fill="#3A3526"/>
<path d="M45.7158 292.744L58.2133 267.21L28.394 223.312L-20.8516 265.977L18.8751 301.309L45.7158 292.744Z" fill="#3A3526"/>
<path d="M52.0932 300.141L40.6641 320.678L113.156 385.178L128.989 371.454L74.6924 291.51L52.0932 300.141Z" fill="#3A3526"/>
<path d="M119.179 248.943L139.609 229.217L126.529 177.792L65.7246 200.99L91.0111 247.775L119.179 248.943Z" fill="#3A3526"/>
<path d="M122.676 258.093L104.934 273.504L151.168 358.898L170.659 351.436L146.862 257.703L122.676 258.093Z" fill="#3A3526"/>
<path d="M233.761 363.018C231.948 369.961 226.282 390.693 221.555 396.339C221.555 396.339 219.45 396.566 219.094 393.678C219.094 393.678 220.098 372.395 222.914 360.52C213.784 358.898 205.139 358.606 197.207 359.157C196.98 372.752 205.658 406.072 205.658 406.072C207.017 411.685 205.917 412.366 205.917 412.366C204.427 413.113 202.064 410.517 202.064 410.517C195.135 401.725 187.656 371.843 185.033 360.65C164.474 364.348 151.199 372.525 151.199 372.525C203.521 411.847 205.172 459.541 208.733 468.074C261.022 419.796 261.897 375.542 261.897 375.542C252.313 369.637 242.859 365.614 233.761 363.018Z" fill="#3A3526"/>
<path d="M320.856 445.265C313.96 447.147 293.174 452.5 285.954 451.17C285.954 451.17 284.723 449.483 287.055 447.731C287.055 447.731 305.931 438.03 317.619 434.558C314.478 425.798 310.431 418.109 306.028 411.523C294.178 418.076 269.636 442.215 269.636 442.215C265.459 446.173 264.326 445.557 264.326 445.557C262.934 444.616 264.002 441.307 264.002 441.307C268.114 430.892 290.292 409.544 298.646 401.692C285.274 385.664 271.578 378.17 271.578 378.17C263.516 443.253 223.11 468.365 217.541 475.73C285.274 497.241 323.997 476.022 323.997 476.022C324.353 464.699 323.123 454.479 320.856 445.265Z" fill="#3A3526"/>
<path d="M120.96 396.209C125.978 401.335 140.775 416.876 143.17 423.852C143.17 423.852 142.296 425.766 139.641 424.598C139.641 424.598 121.963 412.788 113.222 404.255C107.167 411.296 102.472 418.563 98.8462 425.669C110.34 432.839 143.3 442.54 143.3 442.54C148.804 444.292 148.804 445.557 148.804 445.557C148.707 447.244 145.275 447.926 145.275 447.926C134.202 449.353 104.771 440.431 93.8602 436.927C86.4458 456.491 86.6077 472.129 86.6077 472.129C147.153 447.374 188.757 470.475 197.855 471.74C183.512 401.952 146.149 378.429 146.149 378.429C136.177 383.653 127.889 389.72 120.96 396.209Z" fill="#3A3526"/>
</g>
</g>
</svg>
