<svg width="449" height="222" viewBox="0 0 449 222" fill="none" xmlns="http://www.w3.org/2000/svg">
<g clip-path="url(#clip0_1058_7073)">
<path d="M517.192 28.5656L521.109 5.36777L431.36 -31.1323L420.967 -12.931L498.769 44.2688L517.192 28.5656Z" fill="black" fill-opacity="0.02"/>
<path d="M464.675 91.8324L476.234 71.3924L404.26 6.34113L388.33 19.9354L441.979 100.3L464.675 91.8324Z" fill="black" fill-opacity="0.02"/>
<path d="M397.17 142.51L376.578 162.075L389.27 213.629L450.268 190.885L425.306 143.906L397.17 142.51Z" fill="black" fill-opacity="0.02"/>
<path d="M393.737 133.361L411.61 118.08L366.055 32.2967L346.467 39.6291L369.584 133.524L393.737 133.361Z" fill="black" fill-opacity="0.02"/>
<path d="M313.086 157.89L287.087 169.213L281.453 222L346.531 221.513L339.052 168.791L313.086 157.89Z" fill="black" fill-opacity="0.02"/>
<path d="M312.989 148.091L334.973 139.85L321.342 43.6521L300.426 43.8143L290.195 139.98L312.989 148.091Z" fill="black" fill-opacity="0.02"/>
<path d="M228.809 143.549L200.511 145.301L177.297 193.027L238.619 214.797L249.53 162.724L228.809 143.549Z" fill="black" fill-opacity="0.02"/>
<path d="M232.078 134.302L255.487 134.075L275.431 38.9803L255.713 31.9723L213.396 118.891L232.078 134.302Z" fill="black" fill-opacity="0.02"/>
<path d="M154.47 101.209L127.306 93.1626L89.2305 130.085L139.447 171.581L167.421 126.321L154.47 101.209Z" fill="black" fill-opacity="0.02"/>
<path d="M160.687 93.6494L182.801 101.468L233.859 18.8972L217.736 5.56247L148.352 72.7551L160.687 93.6494Z" fill="black" fill-opacity="0.02"/>
<path d="M99.0086 35.9954L76.1828 19.1243L27.8438 40.7972L60.9655 96.9911L102.635 64.0275L99.0086 35.9954Z" fill="black" fill-opacity="0.02"/>
<path d="M107.396 30.9988L125.559 45.9233L201.613 -14.2289L190.961 -32.3004L102.928 7.15209L107.396 30.9988Z" fill="black" fill-opacity="0.02"/>
<path d="M398.011 -8.0318C392.928 -13.1256 378.002 -28.5043 375.541 -35.4474C375.541 -35.4474 376.415 -37.3616 379.07 -36.2261C379.07 -36.2261 396.845 -24.6434 405.652 -16.1754C411.642 -23.2807 416.272 -30.6132 419.833 -37.7185C408.274 -44.7915 375.185 -54.1355 375.185 -54.1355C369.681 -55.8226 369.648 -57.0879 369.648 -57.0879C369.746 -58.775 373.145 -59.4888 373.145 -59.4888C384.218 -61.0462 413.714 -52.3835 424.657 -49.0092C431.877 -68.6382 431.521 -84.2764 431.521 -84.2764C371.267 -58.9048 329.436 -81.616 320.273 -82.784C335.361 -13.1256 372.951 10.0074 372.951 10.0074C382.923 4.68649 391.147 -1.47801 398.011 -8.0318Z" fill="black" fill-opacity="0.02"/>
<path d="M283.236 25.7429C285.114 18.7998 291.006 -1.86739 295.766 -7.44785C295.766 -7.44785 297.87 -7.67497 298.194 -4.78741C298.194 -4.78741 296.996 16.4638 294.05 28.3385C303.148 30.0256 311.792 30.4149 319.725 29.9607C320.081 16.3664 311.728 -17.0514 311.728 -17.0514C310.465 -22.6968 311.566 -23.3781 311.566 -23.3781C313.055 -24.0919 315.354 -21.4963 315.354 -21.4963C322.218 -12.639 329.406 17.3398 331.899 28.5656C352.458 25.0616 365.862 17.0478 365.862 17.0478C313.962 -22.8266 312.764 -70.52 309.267 -79.0529C256.525 -31.2946 255.197 12.9273 255.197 12.9273C264.749 18.9296 274.17 23.05 283.236 25.7429Z" fill="black" fill-opacity="0.02"/>
<path d="M196.982 -57.3803C203.911 -59.1971 224.729 -64.3234 231.917 -62.9607C231.917 -62.9607 233.147 -61.2736 230.816 -59.5216C230.816 -59.5216 211.843 -50.0154 200.122 -46.6411C203.198 -37.8811 207.148 -30.1593 211.487 -23.4757C223.402 -29.9322 248.17 -53.8114 248.17 -53.8114C252.379 -57.7371 253.512 -57.0882 253.512 -57.0882C254.905 -56.1474 253.804 -52.838 253.804 -52.838C249.562 -42.4558 227.19 -21.302 218.739 -13.5477C231.982 2.60966 245.58 10.2341 245.58 10.2341C254.257 -54.7522 294.923 -79.475 300.589 -86.775C233.05 -108.967 194.133 -88.1052 194.133 -88.1052C193.647 -76.847 194.78 -66.6269 196.982 -57.3803Z" fill="black" fill-opacity="0.02"/>
</g>
<defs>
<clipPath id="clip0_1058_7073">
<rect width="450" height="222" fill="white"/>
</clipPath>
</defs>
</svg>
