<svg width="436" height="623" viewBox="0 0 436 623" fill="none" xmlns="http://www.w3.org/2000/svg">
<path d="M125.018 63.8833L151.082 52.7548L157.104 0H92.0586L99.0844 52.7872L125.018 63.8833Z" fill="#3A3526" fill-opacity="0.02"/>
<path d="M125.018 73.6816L102.969 81.7279L115.855 178.056H136.77L147.746 81.955L125.018 73.6816Z" fill="#3A3526" fill-opacity="0.02"/>
<path d="M209.166 78.8726L237.463 77.3802L261.066 29.8165L199.874 7.5271L188.606 59.5681L209.166 78.8726Z" fill="#3A3526" fill-opacity="0.02"/>
<path d="M205.831 88.0869L182.358 88.1518L161.733 183.084L181.386 190.255L224.415 103.66L205.831 88.0869Z" fill="#3A3526" fill-opacity="0.02"/>
<path d="M283.181 121.797L310.28 130.038L348.647 93.4402L298.722 51.5868L270.392 96.5874L283.181 121.797Z" fill="#3A3526" fill-opacity="0.02"/>
<path d="M276.9 129.291L254.851 121.343L203.145 203.492L219.204 216.957L289.041 150.283L276.9 129.291Z" fill="#3A3526" fill-opacity="0.02"/>
<path d="M338.124 187.465L360.821 204.498L409.322 183.214L376.653 126.761L334.692 159.368L338.124 187.465Z" fill="#3A3526" fill-opacity="0.02"/>
<path d="M329.706 192.364L311.672 177.309L235.133 236.877L245.623 255.014L333.98 216.243L329.706 192.364Z" fill="#3A3526" fill-opacity="0.02"/>
<path d="M367.458 267.992L382.999 291.774L435.871 288.399L424.312 224.127L373.804 240.446L367.458 267.992Z" fill="#3A3526" fill-opacity="0.02"/>
<path d="M357.874 269.711L346.024 249.401L253.847 279.185L257.538 299.82L353.762 293.655L357.874 269.711Z" fill="#3A3526" fill-opacity="0.02"/>
<path d="M367.652 353.743L374.16 381.386L424.96 396.31L436 331.973L382.967 329.993L367.652 353.743Z" fill="#3A3526" fill-opacity="0.02"/>
<path d="M358.036 352.088L353.827 328.922L257.019 325.354L253.522 346.021L346.024 373.144L358.036 352.088Z" fill="#3A3526" fill-opacity="0.02"/>
<path d="M338.675 434.4L335.372 462.626L378.077 494.033L410.325 437.32L361.144 417.334L338.675 434.4Z" fill="#3A3526" fill-opacity="0.02"/>
<path d="M330.192 429.566L334.109 406.368L244.36 369.868L233.967 388.069L311.769 445.269L330.192 429.566Z" fill="#3A3526" fill-opacity="0.02"/>
<path d="M283.99 500.295L271.266 525.731L300.729 569.823L350.33 527.581L310.928 491.957L283.99 500.295Z" fill="#3A3526" fill-opacity="0.02"/>
<path d="M277.676 492.832L289.235 472.392L217.261 407.341L201.331 420.935L254.98 501.3L277.676 492.832Z" fill="#3A3526" fill-opacity="0.02"/>
<path d="M210.17 543.51L189.578 563.075L202.27 614.629L263.268 591.885L238.306 544.906L210.17 543.51Z" fill="#3A3526" fill-opacity="0.02"/>
<path d="M206.738 534.361L224.611 519.08L179.056 433.297L159.468 440.629L182.585 534.524L206.738 534.361Z" fill="#3A3526" fill-opacity="0.02"/>
<path d="M126.087 558.89L100.088 570.213L94.4541 623L159.532 622.513L152.053 569.791L126.087 558.89Z" fill="#3A3526" fill-opacity="0.02"/>
<path d="M125.99 549.091L147.974 540.85L134.343 444.652L113.427 444.814L103.196 540.98L125.99 549.091Z" fill="#3A3526" fill-opacity="0.02"/>
<path d="M41.8088 544.549L13.5113 546.301L-9.70312 594.027L51.6191 615.797L62.5302 563.724L41.8088 544.549Z" fill="#3A3526" fill-opacity="0.02"/>
<path d="M45.0791 535.302L68.4877 535.075L88.432 439.98L68.7143 432.972L26.3975 519.891L45.0791 535.302Z" fill="#3A3526" fill-opacity="0.02"/>
<path d="M-26.3128 494.649L-4.19922 502.469L46.8595 419.897L30.7357 406.562L-38.6484 473.755L-26.3128 494.649Z" fill="#3A3526" fill-opacity="0.02"/>
<path d="M-79.6052 431.999L-61.4417 446.923L14.6122 386.771L3.96008 368.7L-84.0732 408.152L-79.6052 431.999Z" fill="#3A3526" fill-opacity="0.02"/>
<path d="M-81.9366 194.829L-85.6924 218.092L4.38069 253.879L14.6119 235.547L-63.6112 178.964L-81.9366 194.829Z" fill="#3A3526" fill-opacity="0.02"/>
<path d="M-29.9058 131.141L-41.335 151.678L31.1573 216.178L46.9898 202.454L-7.30663 122.51L-29.9058 131.141Z" fill="#3A3526" fill-opacity="0.02"/>
<path d="M37.1792 79.9433L57.6091 60.2171L44.5288 8.79248L-16.2754 31.9903L9.01113 78.7753L37.1792 79.9433Z" fill="#3A3526" fill-opacity="0.02"/>
<path d="M40.6753 89.0926L22.9326 104.504L69.1671 189.898L88.6581 182.435L64.861 88.7032L40.6753 89.0926Z" fill="#3A3526" fill-opacity="0.02"/>
<path d="M151.762 194.018C149.949 200.962 144.283 221.694 139.556 227.339C139.556 227.339 137.451 227.566 137.095 224.678C137.095 224.678 138.099 203.395 140.915 191.52C131.785 189.898 123.14 189.606 115.208 190.157C114.981 203.752 123.658 237.072 123.658 237.072C125.018 242.685 123.917 243.367 123.917 243.367C122.428 244.113 120.065 241.517 120.065 241.517C113.136 232.725 105.657 202.843 103.034 191.65C82.4748 195.349 69.2002 203.525 69.2002 203.525C121.522 242.847 123.173 290.541 126.734 299.074C179.023 250.796 179.897 206.542 179.897 206.542C170.314 200.637 160.86 196.614 151.762 194.018Z" fill="#3A3526" fill-opacity="0.02"/>
<path d="M238.856 276.265C231.96 278.147 211.174 283.5 203.954 282.17C203.954 282.17 202.723 280.483 205.055 278.731C205.055 278.731 223.931 269.03 235.619 265.558C232.478 256.798 228.431 249.109 224.028 242.523C212.178 249.077 187.636 273.215 187.636 273.215C183.459 277.174 182.326 276.557 182.326 276.557C180.934 275.616 182.002 272.307 182.002 272.307C186.114 261.892 208.292 240.544 216.646 232.692C203.274 216.664 189.578 209.17 189.578 209.17C181.516 274.254 141.11 299.366 135.541 306.73C203.274 328.241 241.997 307.022 241.997 307.022C242.353 295.699 241.123 285.479 238.856 276.265Z" fill="#3A3526" fill-opacity="0.02"/>
<path d="M211.012 392.968C205.929 387.874 191.003 372.496 188.542 365.553C188.542 365.553 189.416 363.638 192.071 364.774C192.071 364.774 209.846 376.357 218.653 384.825C224.643 377.719 229.272 370.387 232.834 363.282C221.275 356.209 188.186 346.865 188.186 346.865C182.682 345.177 182.649 343.912 182.649 343.912C182.747 342.225 186.146 341.511 186.146 341.511C197.219 339.954 226.715 348.617 237.658 351.991C244.878 332.362 244.522 316.724 244.522 316.724C184.268 342.095 142.437 319.384 133.274 318.216C148.362 387.874 185.952 411.007 185.952 411.007C195.924 405.687 204.148 399.522 211.012 392.968Z" fill="#3A3526" fill-opacity="0.02"/>
<path d="M96.2348 426.743C98.1127 419.8 104.005 399.133 108.765 393.552C108.765 393.552 110.869 393.325 111.193 396.213C111.193 396.213 109.995 417.464 107.049 429.338C116.147 431.026 124.791 431.415 132.724 430.961C133.08 417.366 124.727 383.949 124.727 383.949C123.464 378.303 124.565 377.622 124.565 377.622C126.054 376.908 128.353 379.504 128.353 379.504C135.217 388.361 142.405 418.34 144.898 429.566C165.457 426.062 178.861 418.048 178.861 418.048C126.961 378.173 125.763 330.48 122.266 321.947C69.5238 369.705 68.1963 413.927 68.1963 413.927C77.7475 419.93 87.1693 424.05 96.2348 426.743Z" fill="#3A3526" fill-opacity="0.02"/>
<path d="M9.98189 343.62C16.9106 341.803 37.729 336.677 44.9168 338.039C44.9168 338.039 46.1471 339.726 43.816 341.478C43.816 341.478 24.843 350.985 13.1225 354.359C16.1983 363.119 20.1483 370.841 24.4868 377.524C36.4016 371.068 61.1701 347.189 61.1701 347.189C65.3791 343.263 66.5123 343.912 66.5123 343.912C67.9045 344.853 66.8037 348.162 66.8037 348.162C62.5623 358.544 40.1897 379.698 31.7393 387.452C44.9815 403.61 58.5799 411.234 58.5799 411.234C67.257 346.248 107.923 321.525 113.589 314.225C46.05 292.033 7.13269 312.895 7.13269 312.895C6.64703 324.153 7.78025 334.373 9.98189 343.62Z" fill="#3A3526" fill-opacity="0.02"/>
<path d="M38.9598 227.209C43.9783 232.335 58.7746 247.876 61.1705 254.852C61.1705 254.852 60.2963 256.766 57.6414 255.598C57.6414 255.598 39.9635 243.788 31.2217 235.255C25.1672 242.296 20.4725 249.563 16.8462 256.669C28.3401 263.839 61.3 273.54 61.3 273.54C66.8041 275.292 66.8041 276.557 66.8041 276.557C66.707 278.244 63.275 278.926 63.275 278.926C52.202 280.353 22.7713 271.431 11.8602 267.927C4.44583 287.491 4.60771 303.129 4.60771 303.129C65.1529 278.374 106.757 301.475 115.855 302.74C101.512 232.952 64.1492 209.429 64.1492 209.429C54.177 214.653 45.8885 220.72 38.9598 227.209Z" fill="#3A3526" fill-opacity="0.02"/>
</svg>
