<svg width="255" height="623" viewBox="0 0 255 623" fill="none" xmlns="http://www.w3.org/2000/svg">
<path d="M28.1669 78.8729L56.4645 77.3804L80.0674 29.8167L18.8747 7.52734L7.60742 59.5684L28.1669 78.8729Z" fill="black" fill-opacity="0.02"/>
<path d="M24.832 88.0869L1.35861 88.1518L-19.2656 183.084L0.387295 190.255L43.4164 103.66L24.832 88.0869Z" fill="black" fill-opacity="0.02"/>
<path d="M102.18 121.797L129.279 130.038L167.646 93.4404L117.721 51.5869L89.3906 96.5875L102.18 121.797Z" fill="black" fill-opacity="0.02"/>
<path d="M95.8996 129.292L73.8507 121.343L22.1445 203.492L38.2036 216.957L108.041 150.283L95.8996 129.292Z" fill="black" fill-opacity="0.02"/>
<path d="M157.123 187.464L179.82 204.498L228.321 183.214L195.652 126.761L153.691 159.367L157.123 187.464Z" fill="black" fill-opacity="0.02"/>
<path d="M148.706 192.364L130.672 177.31L54.1328 236.878L64.623 255.014L152.98 216.243L148.706 192.364Z" fill="black" fill-opacity="0.02"/>
<path d="M186.457 267.991L201.998 291.773L254.87 288.399L243.311 224.126L192.803 240.446L186.457 267.991Z" fill="black" fill-opacity="0.02"/>
<path d="M176.873 269.711L165.023 249.401L72.8457 279.185L76.5367 299.82L172.761 293.655L176.873 269.711Z" fill="black" fill-opacity="0.02"/>
<path d="M186.652 353.743L193.16 381.385L243.96 396.31L255 331.972L201.967 329.993L186.652 353.743Z" fill="black" fill-opacity="0.02"/>
<path d="M177.037 352.088L172.828 328.922L76.0202 325.354L72.5234 346.021L165.025 373.144L177.037 352.088Z" fill="black" fill-opacity="0.02"/>
<path d="M157.674 434.4L154.371 462.627L197.076 494.033L229.324 437.32L180.143 417.334L157.674 434.4Z" fill="black" fill-opacity="0.02"/>
<path d="M149.192 429.566L153.109 406.368L63.3599 369.868L52.9668 388.069L130.769 445.269L149.192 429.566Z" fill="black" fill-opacity="0.02"/>
<path d="M102.99 500.295L90.2656 525.731L119.729 569.823L169.33 527.581L129.928 491.957L102.99 500.295Z" fill="black" fill-opacity="0.02"/>
<path d="M96.6752 492.833L108.234 472.393L36.2596 407.341L20.3301 420.936L73.9789 501.301L96.6752 492.833Z" fill="black" fill-opacity="0.02"/>
<path d="M29.17 543.511L8.57812 563.075L21.27 614.629L82.2684 591.886L57.3057 544.906L29.17 543.511Z" fill="black" fill-opacity="0.02"/>
<path d="M25.7374 534.362L43.6095 519.08L-1.94506 433.297L-21.5332 440.629L1.58405 534.524L25.7374 534.362Z" fill="black" fill-opacity="0.02"/>
<path d="M57.8563 276.265C50.96 278.147 30.1739 283.5 22.9538 282.17C22.9538 282.17 21.7235 280.483 24.0546 278.731C24.0546 278.731 42.9305 269.03 54.6186 265.559C51.4781 256.798 47.4309 249.109 43.0276 242.523C31.1776 249.077 6.63575 273.215 6.63575 273.215C2.45911 277.174 1.3259 276.557 1.3259 276.557C-0.0663147 275.616 1.00213 272.307 1.00213 272.307C5.11402 261.892 27.2923 240.544 35.6456 232.692C22.2739 216.665 8.57838 209.17 8.57838 209.17C0.516483 274.254 -39.8901 299.366 -45.459 306.731C22.2739 328.241 60.9969 307.023 60.9969 307.023C61.3531 295.699 60.1227 285.479 57.8563 276.265Z" fill="black" fill-opacity="0.02"/>
<path d="M30.0109 392.968C24.9277 387.874 10.0018 372.496 7.54115 365.553C7.54115 365.553 8.41534 363.638 11.0703 364.774C11.0703 364.774 28.8453 376.357 37.6518 384.825C43.6416 377.719 48.2715 370.387 51.833 363.282C40.2744 356.209 7.18501 346.865 7.18501 346.865C1.6809 345.177 1.64849 343.912 1.64849 343.912C1.74562 342.225 5.14523 341.511 5.14523 341.511C16.2182 339.954 45.7137 348.617 56.6572 351.991C63.8773 332.362 63.5212 316.724 63.5212 316.724C3.26738 342.095 -38.5638 319.384 -47.7266 318.216C-32.6388 387.874 4.95098 411.007 4.95098 411.007C14.9231 405.687 23.1469 399.522 30.0109 392.968Z" fill="black" fill-opacity="0.02"/>
</svg>
