<svg width="22" height="23" viewBox="0 0 22 23" fill="none" xmlns="http://www.w3.org/2000/svg">
<path fill-rule="evenodd" clip-rule="evenodd" d="M17.9478 1.69744L19.4327 0.098493C19.5547 -0.032831 19.7521 -0.032831 19.8741 0.098493L21.359 1.69744L20.9177 2.17262L19.9662 1.14809V15.9838L20.9177 14.9592L21.359 15.4344L19.8741 17.0334C19.7521 17.1647 19.5547 17.1647 19.4327 17.0334L17.9478 15.4344L18.3891 14.9592L19.3406 15.9838L19.3415 1.14912L18.39 2.17365L17.9478 1.69744ZM2.0174 19.8021L1.06591 20.8266H14.8439L13.8924 19.8021L14.3337 19.3269L15.8187 20.9259C15.9406 21.0572 15.9406 21.2707 15.8187 21.401L14.3337 23L13.8924 22.5248L14.8439 21.5003L1.06686 21.4993L2.01835 22.5238L1.57705 22.999L0.0920931 21.4C-0.0298684 21.2687 -0.0298684 21.0562 0.0920931 20.9249L1.57705 19.3259L2.0174 19.8021ZM15.2861 1.14902L8.39766 8.56621L15.2861 15.9834V1.14902ZM7.95531 9.04252L14.8437 16.4597H1.06667L7.95531 9.04252ZM0.62456 15.9847L7.51296 8.5675L0.62456 1.14927V15.9847ZM7.95531 8.09119L1.06691 0.672965H14.8449L7.95531 8.09119ZM0.312816 0.000331012H15.599C15.7712 0.000331012 15.9109 0.150702 15.9109 0.337161V16.7968C15.9109 16.9823 15.7712 17.1326 15.599 17.1326H0.312816C0.14058 17.1326 0 16.9823 0 16.7968V0.337161C0 0.151703 0.14058 0.000331012 0.312816 0.000331012Z" fill="#3A3526"/>
</svg>
