<svg width="298" height="623" viewBox="0 0 298 623" fill="none" xmlns="http://www.w3.org/2000/svg">
<g clip-path="url(#clip0_1102_7073)">
<path d="M312.018 63.8833L338.082 52.7548L344.104 0H279.059L286.084 52.7872L312.018 63.8833Z" fill="black" fill-opacity="0.02"/>
<path d="M312.018 73.6816L289.969 81.7279L302.855 178.056H323.77L334.746 81.955L312.018 73.6816Z" fill="black" fill-opacity="0.02"/>
<path d="M313.086 558.89L287.087 570.213L281.453 623L346.531 622.513L339.052 569.791L313.086 558.89Z" fill="black" fill-opacity="0.02"/>
<path d="M312.989 549.091L334.973 540.85L321.342 444.652L300.426 444.814L290.195 540.98L312.989 549.091Z" fill="black" fill-opacity="0.02"/>
<path d="M228.809 544.549L200.511 546.301L177.297 594.027L238.619 615.797L249.53 563.724L228.809 544.549Z" fill="black" fill-opacity="0.02"/>
<path d="M232.078 535.302L255.487 535.075L275.431 439.98L255.713 432.972L213.396 519.891L232.078 535.302Z" fill="black" fill-opacity="0.02"/>
<path d="M154.47 502.209L127.306 494.163L89.2305 531.084L139.447 572.581L167.421 527.321L154.47 502.209Z" fill="black" fill-opacity="0.02"/>
<path d="M160.687 494.649L182.801 502.469L233.859 419.897L217.736 406.562L148.352 473.755L160.687 494.649Z" fill="black" fill-opacity="0.02"/>
<path d="M99.0086 436.995L76.1828 420.124L27.8438 441.797L60.9655 497.991L102.635 465.027L99.0086 436.995Z" fill="black" fill-opacity="0.02"/>
<path d="M107.396 431.999L125.559 446.923L201.613 386.771L190.961 368.7L102.928 408.152L107.396 431.999Z" fill="black" fill-opacity="0.02"/>
<path d="M69.0275 356.695L53.3246 333.011L0.517578 336.839L12.5295 400.982L62.9082 384.306L69.0275 356.695Z" fill="black" fill-opacity="0.02"/>
<path d="M78.6445 354.878L90.5917 375.124L182.575 344.626L178.69 323.991L82.5298 330.934L78.6445 354.878Z" fill="black" fill-opacity="0.02"/>
<path d="M68.1862 270.944L61.4517 243.334L10.5226 228.831L0 293.266L53.0661 294.791L68.1862 270.944Z" fill="black" fill-opacity="0.02"/>
<path d="M77.834 272.534L82.1725 295.634L179.012 298.457L182.412 277.757L89.6516 251.348L77.834 272.534Z" fill="black" fill-opacity="0.02"/>
<path d="M96.5481 190.06L99.5916 161.801L56.6595 130.751L24.8652 187.692L74.2079 207.321L96.5481 190.06Z" fill="black" fill-opacity="0.02"/>
<path d="M105.064 194.829L101.309 218.092L191.382 253.878L201.613 235.547L123.39 178.964L105.064 194.829Z" fill="black" fill-opacity="0.02"/>
<path d="M150.716 123.744L163.213 98.2099L133.394 54.3125L84.1484 96.9771L123.875 132.309L150.716 123.744Z" fill="black" fill-opacity="0.02"/>
<path d="M157.093 131.141L145.664 151.678L218.156 216.178L233.989 202.454L179.692 122.51L157.093 131.141Z" fill="black" fill-opacity="0.02"/>
<path d="M224.179 79.9433L244.609 60.2171L231.529 8.79248L170.725 31.9903L196.011 78.7753L224.179 79.9433Z" fill="black" fill-opacity="0.02"/>
<path d="M227.676 89.0925L209.934 104.504L256.168 189.898L275.659 182.435L251.862 88.7031L227.676 89.0925Z" fill="black" fill-opacity="0.02"/>
<path d="M338.761 194.018C336.948 200.961 331.282 221.693 326.555 227.339C326.555 227.339 324.45 227.566 324.094 224.678C324.094 224.678 325.098 203.395 327.914 191.52C318.784 189.898 310.139 189.606 302.207 190.157C301.98 203.752 310.658 237.072 310.658 237.072C312.017 242.685 310.917 243.366 310.917 243.366C309.427 244.113 307.064 241.517 307.064 241.517C300.135 232.725 292.656 202.843 290.033 191.65C269.474 195.348 256.199 203.525 256.199 203.525C308.521 242.847 310.172 290.541 313.733 299.074C366.022 250.796 366.897 206.542 366.897 206.542C357.313 200.637 347.859 196.614 338.761 194.018Z" fill="black" fill-opacity="0.02"/>
<path d="M283.236 426.743C285.114 419.8 291.006 399.133 295.766 393.552C295.766 393.552 297.87 393.325 298.194 396.213C298.194 396.213 296.996 417.464 294.05 429.339C303.148 431.026 311.792 431.415 319.725 430.961C320.081 417.367 311.728 383.949 311.728 383.949C310.465 378.303 311.566 377.622 311.566 377.622C313.055 376.908 315.354 379.504 315.354 379.504C322.218 388.361 329.406 418.34 331.899 429.566C352.458 426.062 365.862 418.048 365.862 418.048C313.962 378.174 312.764 330.48 309.267 321.947C256.525 369.706 255.197 413.928 255.197 413.928C264.749 419.93 274.17 424.05 283.236 426.743Z" fill="black" fill-opacity="0.02"/>
<path d="M196.982 343.62C203.911 341.803 224.729 336.677 231.917 338.039C231.917 338.039 233.147 339.727 230.816 341.479C230.816 341.479 211.843 350.985 200.122 354.359C203.198 363.119 207.148 370.841 211.487 377.524C223.402 371.068 248.17 347.189 248.17 347.189C252.379 343.263 253.512 343.912 253.512 343.912C254.904 344.853 253.804 348.162 253.804 348.162C249.562 358.544 227.19 379.698 218.739 387.452C231.982 403.61 245.58 411.234 245.58 411.234C254.257 346.248 294.923 321.525 300.589 314.225C233.05 292.033 194.133 312.895 194.133 312.895C193.647 324.153 194.78 334.373 196.982 343.62Z" fill="black" fill-opacity="0.02"/>
<path d="M225.96 227.209C230.978 232.336 245.775 247.876 248.17 254.852C248.17 254.852 247.296 256.766 244.641 255.598C244.641 255.598 226.963 243.788 218.222 235.256C212.167 242.296 207.472 249.564 203.846 256.669C215.34 263.839 248.3 273.54 248.3 273.54C253.804 275.292 253.804 276.557 253.804 276.557C253.707 278.245 250.275 278.926 250.275 278.926C239.202 280.353 209.771 271.431 198.86 267.927C191.446 287.491 191.608 303.129 191.608 303.129C252.153 278.374 293.757 301.475 302.855 302.74C288.512 232.952 251.149 209.43 251.149 209.43C241.177 214.653 232.889 220.72 225.96 227.209Z" fill="black" fill-opacity="0.02"/>
</g>
<defs>
<clipPath id="clip0_1102_7073">
<rect width="303" height="623" fill="white"/>
</clipPath>
</defs>
</svg>
