<svg width="18" height="20" viewBox="0 0 18 20" fill="none" xmlns="http://www.w3.org/2000/svg">
<path fill-rule="evenodd" clip-rule="evenodd" d="M14.9672 1.56911L16.2056 0.235701C16.3073 0.126186 16.4719 0.126186 16.5736 0.235701L17.8119 1.56911L17.4439 1.96538L16.6504 1.111V13.4829L17.4439 12.6285L17.8119 13.0248L16.5736 14.3582C16.4719 14.4677 16.3073 14.4677 16.2056 14.3582L14.9672 13.0248L15.3352 12.6285L16.1287 13.4829L16.1295 1.11185L15.336 1.96624L14.9672 1.56911ZM1.68237 16.6671L0.888896 17.5215H12.3788L11.5853 16.6671L11.9533 16.2709L13.1917 17.6043C13.2934 17.7138 13.2934 17.8919 13.1917 18.0006L11.9533 19.334L11.5853 18.9377L12.3788 18.0833L0.889691 18.0825L1.68316 18.9369L1.31515 19.3331L0.0767993 17.9997C-0.0249081 17.8902 -0.0249081 17.713 0.0767993 17.6035L1.31515 16.27L1.68237 16.6671ZM12.7475 1.11177L7.00307 7.29719L12.7475 13.4826V1.11177ZM6.63418 7.6944L12.3786 13.8798H0.889532L6.63418 7.6944ZM0.52084 13.4837L6.26529 7.29826L0.52084 1.11198V13.4837ZM6.63418 6.90105L0.889731 0.714771H12.3796L6.63418 6.90105ZM0.260867 0.15384H13.0085C13.1521 0.15384 13.2686 0.27924 13.2686 0.434734V14.1609C13.2686 14.3156 13.1521 14.441 13.0085 14.441H0.260867C0.117234 14.441 0 14.3156 0 14.1609V0.434734C0 0.280074 0.117234 0.15384 0.260867 0.15384Z" fill="black" fill-opacity="0.7"/>
</svg>
