<svg width="15" height="16" viewBox="0 0 15 16" fill="none" xmlns="http://www.w3.org/2000/svg">
<path d="M7.83895 1.25337C7.48787 0.904234 6.90781 0.917703 6.57414 1.28274L1.22019 7.14008C1.07838 7.29517 1 7.49589 1 7.70389V14.1534C1 14.621 1.38802 15 1.86667 15H4.46667C4.94531 15 5.33333 14.621 5.33333 14.1534V11.1905C5.33333 10.7229 5.72136 10.3439 6.2 10.3439H8.8C9.27866 10.3439 9.66667 10.7229 9.66667 11.1905V14.1534C9.66667 14.621 10.0547 15 10.5333 15H13.1333C13.612 15 14 14.621 14 14.1534V7.72717C14 7.50529 13.9108 7.29229 13.7516 7.13399L7.83895 1.25337Z" stroke="white"/>
</svg>
