<svg width="33" height="34" viewBox="0 0 33 34" fill="none" xmlns="http://www.w3.org/2000/svg">
<path d="M31.9 31.5333H28.6V2.19998H29.7C30.3075 2.19998 30.8 1.70748 30.8 1.09996C30.8 0.492427 30.3075 0 29.7 0C27.5515 0 4.29737 0 3.3 0C2.69254 0 2.19998 0.492493 2.19998 1.10002C2.19998 1.70755 2.69247 2.20004 3.3 2.20004H4.40002V31.5333H1.10002C0.492559 31.5333 0 32.0258 0 32.6333C0 33.2409 0.492493 33.7333 1.10002 33.7333C1.76764 33.7333 29.132 33.7333 31.9 33.7333C32.5074 33.7333 33 33.2408 33 32.6333C33 32.0258 32.5075 31.5333 31.9 31.5333ZM26.4 31.5333H6.6V2.19998H26.4V31.5333Z" fill="#FCF9F2"/>
<path d="M14.2998 5.13333H9.89983C9.29236 5.13333 8.7998 5.62582 8.7998 6.23335V10.6334C8.7998 11.2408 9.2923 11.7334 9.89983 11.7334H14.2998C14.9073 11.7334 15.3999 11.2409 15.3999 10.6334V6.23335C15.3998 5.62582 14.9073 5.13333 14.2998 5.13333ZM13.1998 9.53335H10.9998V7.33337H13.1998V9.53335Z" fill="#FCF9F2"/>
<path d="M23.0987 5.13334H18.6987C18.0912 5.13334 17.5986 5.62583 17.5986 6.23336V10.6334C17.5986 11.2408 18.0911 11.7334 18.6987 11.7334H23.0987C23.7061 11.7334 24.1987 11.2409 24.1987 10.6334V6.23336C24.1987 5.62583 23.7061 5.13334 23.0987 5.13334ZM21.9987 9.53336H19.7987V7.33338H21.9987V9.53336Z" fill="#FCF9F2"/>
<path d="M14.2998 13.9333H9.89983C9.29236 13.9333 8.7998 14.4258 8.7998 15.0333V19.4333C8.7998 20.0408 9.2923 20.5334 9.89983 20.5334H14.2998C14.9073 20.5334 15.3999 20.0409 15.3999 19.4333V15.0333C15.3998 14.4258 14.9073 13.9333 14.2998 13.9333ZM13.1998 18.3333H10.9998V16.1333H13.1998V18.3333Z" fill="#FCF9F2"/>
<path d="M23.0987 13.9333H18.6987C18.0912 13.9333 17.5986 14.4258 17.5986 15.0333V19.4333C17.5986 20.0408 18.0911 20.5334 18.6987 20.5334H23.0987C23.7061 20.5334 24.1987 20.0409 24.1987 19.4333V15.0333C24.1987 14.4258 23.7061 13.9333 23.0987 13.9333ZM21.9987 18.3333H19.7987V16.1333H21.9987V18.3333Z" fill="#FCF9F2"/>
<path d="M14.2998 22.7333H9.89983C9.29236 22.7333 8.7998 23.2258 8.7998 23.8333V28.2333C8.7998 28.8408 9.2923 29.3333 9.89983 29.3333H14.2998C14.9073 29.3333 15.3999 28.8408 15.3999 28.2333V23.8333C15.3998 23.2258 14.9073 22.7333 14.2998 22.7333ZM13.1998 27.1333H10.9998V24.9333H13.1998V27.1333Z" fill="#FCF9F2"/>
<path d="M23.0987 22.7333H18.6987C18.0912 22.7333 17.5986 23.2258 17.5986 23.8333V28.2333C17.5986 28.8408 18.0911 29.3333 18.6987 29.3333H23.0987C23.7061 29.3333 24.1987 28.8408 24.1987 28.2333V23.8333C24.1987 23.2258 23.7061 22.7333 23.0987 22.7333ZM21.9987 27.1333H19.7987V24.9333H21.9987V27.1333Z" fill="#FCF9F2"/>
</svg>
